/* XPM */
static char * left_active_xpm[] = {
"2 10 2 1",
" 	c #3B3B3B",
".	c #303030",
" .",
" .",
" .",
" .",
" .",
" .",
" .",
" .",
" .",
" ."};
