/* XPM */
static char * maximize_prelight_xpm[] = {
"24 24 13 1",
" 	c #303030",
".	c #373737",
"+	c #414141",
"@	c #484848",
"#	c #4C4C4C",
"$	c #4F4F4F",
"%	c #383838",
"&	c #454545",
"*	c #3F3F3F",
"=	c #525252",
"-	c #545454",
";	c #F4F4F4",
">	c #515151",
"       .+@#$$#@+.       ",
"     %&$$$$$$$$$$&%     ",
"    *#$$$$$$$$$$$$#*    ",
"   +$$$$$$$$$$$$$$$$+   ",
"  *$$$$$$$$$$$$$$$$$$*  ",
" %#$$$$$$$$$$$$$$$$$$#% ",
" &$$$$$$$$$$$$$$$$$$$$& ",
".$$$$$$$========$$$$$$$.",
"+$$$$$$-;;;;;;;;$$$$$$$+",
"@$$$$$$-;;;;;;;;$$$$$$$@",
"#$$$$$$-;;$$$$;;$$$$$$$#",
"$$$$$$$-;;$$$$;;$$$$$$$$",
"$$$$$$$-;;$$$$;;$$$$$$$$",
"#$$$$$$-;;$$$$;;$$$$$$$#",
"@$$$$$$-;;;;;;;;$$$$$$$@",
"+$$$$$$-;;;;;;;;$$$$$$$+",
".$$$$$$$>>>>>>>>$$$$$$$.",
" &$$$$$$$$$$$$$$$$$$$$& ",
" %#$$$$$$$$$$$$$$$$$$#% ",
"  *$$$$$$$$$$$$$$$$$$*  ",
"   +$$$$$$$$$$$$$$$$+   ",
"    *#$$$$$$$$$$$$#*    ",
"     %&$$$$$$$$$$&%     ",
"       .+@#$$#@+.       "};
