/* XPM */
static char * maximize_inactive_xpm[] = {
"24 24 11 1",
" 	c #242424",
".	c #262626",
"+	c #292929",
"@	c #2C2C2C",
"#	c #2D2D2D",
"$	c #2E2E2E",
"%	c #2B2B2B",
"&	c #303030",
"*	c #313131",
"=	c #919191",
"-	c #2F2F2F",
"       .+@#$$#@+.       ",
"     .%$$$$$$$$$$%.     ",
"    +#$$$$$$$$$$$$#+    ",
"   +$$$$$$$$$$$$$$$$+   ",
"  +$$$$$$$$$$$$$$$$$$+  ",
" .#$$$$$$$$$$$$$$$$$$#. ",
" %$$$$$$$$$$$$$$$$$$$$% ",
".$$$$$$$&&&&&&&&$$$$$$$.",
"+$$$$$$*========$$$$$$$+",
"@$$$$$$*========$$$$$$$@",
"#$$$$$$*==$$$$==$$$$$$$#",
"$$$$$$$*==$$$$==$$$$$$$$",
"$$$$$$$*==$$$$==$$$$$$$$",
"#$$$$$$*==$$$$==$$$$$$$#",
"@$$$$$$*========$$$$$$$@",
"+$$$$$$*========$$$$$$$+",
".$$$$$$$--------$$$$$$$.",
" %$$$$$$$$$$$$$$$$$$$$% ",
" .#$$$$$$$$$$$$$$$$$$#. ",
"  +$$$$$$$$$$$$$$$$$$+  ",
"   +$$$$$$$$$$$$$$$$+   ",
"    +#$$$$$$$$$$$$#+    ",
"     .%$$$$$$$$$$%.     ",
"       .+@#$$#@+.       "};
