/* XPM */
static char * shade_active_xpm[] = {
"24 24 5 1",
" 	c #303030",
".	c #B6B6B6",
"+	c #BBBBBB",
"@	c #F4F4F4",
"#	c #B5B5B5",
"                        ",
"                        ",
"                        ",
"                        ",
"                        ",
"                        ",
"                        ",
"                        ",
"                        ",
"           .+           ",
"          .@@+          ",
"         .@@@@.         ",
"        .@@@@@@#        ",
"       .@@@@@@@@#       ",
"      .@@@@@@@@@@#      ",
"                        ",
"                        ",
"                        ",
"                        ",
"                        ",
"                        ",
"                        ",
"                        ",
"                        "};
