/* XPM */
static char * shade_toggled_active_xpm[] = {
"24 24 5 1",
" 	c #303030",
".	c #B6B6B6",
"+	c #F4F4F4",
"@	c #B5B5B5",
"#	c #B1B1B1",
"                        ",
"                        ",
"                        ",
"                        ",
"                        ",
"                        ",
"                        ",
"                        ",
"                        ",
"      .++++++++++@      ",
"       .++++++++@       ",
"        .++++++@        ",
"         #++++@         ",
"          #++@          ",
"           ..           ",
"                        ",
"                        ",
"                        ",
"                        ",
"                        ",
"                        ",
"                        ",
"                        ",
"                        "};
