/* XPM */
static char * shade_toggled_inactive_xpm[] = {
"24 24 4 1",
" 	c #242424",
".	c #6B6B6B",
"+	c #909090",
"@	c #686868",
"                        ",
"                        ",
"                        ",
"                        ",
"                        ",
"                        ",
"                        ",
"                        ",
"                        ",
"      .++++++++++.      ",
"       .++++++++.       ",
"        .++++++.        ",
"         @++++.         ",
"          @++.          ",
"           ..           ",
"                        ",
"                        ",
"                        ",
"                        ",
"                        ",
"                        ",
"                        ",
"                        ",
"                        "};
