/* XPM */
static char * shade_inactive_xpm[] = {
"24 24 4 1",
" 	c #242424",
".	c #6B6B6B",
"+	c #6E6E6E",
"@	c #909090",
"                        ",
"                        ",
"                        ",
"                        ",
"                        ",
"                        ",
"                        ",
"                        ",
"                        ",
"           .+           ",
"          .@@+          ",
"         .@@@@.         ",
"        .@@@@@@.        ",
"       .@@@@@@@@.       ",
"      .@@@@@@@@@@.      ",
"                        ",
"                        ",
"                        ",
"                        ",
"                        ",
"                        ",
"                        ",
"                        ",
"                        "};
