/* XPM */
static char * stick_prelight_xpm[] = {
"24 24 35 1",
" 	c #303030",
".	c #323232",
"+	c #404040",
"@	c #4A4A4A",
"#	c #4E4E4E",
"$	c #4F4F4F",
"%	c #393939",
"&	c #484848",
"*	c #858585",
"=	c #CBCBCB",
"-	c #EDEDED",
";	c #FAFAFA",
">	c #595959",
",	c #CDCDCD",
"'	c #FEFEFE",
")	c #FFFFFF",
"!	c #CCCCCC",
"~	c #E1E1E1",
"{	c #FCFCFC",
"]	c #8F8F8F",
"^	c #606060",
"/	c #909090",
"(	c #F3F3F3",
"_	c #888888",
":	c #848484",
"<	c #CACACA",
"[	c #ECECEC",
"}	c #626262",
"|	c #646464",
"1	c #F9F9F9",
"2	c #898989",
"3	c #FDFDFD",
"4	c #F4F4F4",
"5	c #575757",
"6	c #919191",
"  .+@#$$$$$$$$$$$$#@+.  ",
" %&$$$$$$$$$$$$$$$$$$&% ",
".&$$$$$$$$$$$$$$$$$$$$&.",
"+$$$$$$$$$$$$$$$$$$$$$$+",
"@$$$$$$$*=-;;-=*$$$$$$$@",
"#$$$$$>,'))))))'!>$$$$$#",
"$$$$$>~){=]^^/!{)~>$$$$$",
"$$$$$,)(_$$$$$$_()!$$$$$",
"$$$$*'{_$$$$$$$$_{':$$$$",
"$$$$=)=$$$$$$$$$$!)<$$$$",
"$$$$-)]$$$$$$$$$$/)[$$$$",
"$$$$;)}$$$$$$$$$$});$$$$",
"$$$$;)}$$$$$$$$$$|)1$$$$",
"$$$$-)]$$$$$$$$$$/)[$$$$",
"$$$$=)!$$$$$$$$$$,)<$$$$",
"$$$$*'{_$$$$$$$$23':$$$$",
"$$$$$!)(_$$$$$$24)=$$$$$",
"$$$$$5~){!/}}6,3)~5$$$$$",
"#$$$$$>!'))))))3=5$$$$$#",
"@$$$$$$$*<[;;[<:$$$$$$$@",
"+$$$$$$$$$$$$$$$$$$$$$$+",
".&$$$$$$$$$$$$$$$$$$$$&.",
" %&$$$$$$$$$$$$$$$$$$&% ",
"  .+@#$$$$$$$$$$$$#@+.  "};
