/* XPM */
static char * stick_toggled_active_xpm[] = {
"24 24 35 1",
" 	c #303030",
".	c #757575",
"+	c #BFBFBF",
"@	c #E1E1E1",
"#	c #EFEFEF",
"$	c #3F3F3F",
"%	c #C1C1C1",
"&	c #F3F3F3",
"*	c #F4F4F4",
"=	c #C0C0C0",
"-	c #D6D6D6",
";	c #F1F1F1",
">	c #808080",
",	c #494949",
"'	c #818181",
")	c #E8E8E8",
"!	c #787878",
"~	c #797979",
"{	c #747474",
"]	c #414141",
"^	c #BCBCBC",
"/	c #E9E9E9",
"(	c #BABABA",
"_	c #BEBEBE",
":	c #E2E2E2",
"<	c #4B4B4B",
"[	c #EAEAEA",
"}	c #EEEEEE",
"|	c #4F4F4F",
"1	c #B9B9B9",
"2	c #BBBBBB",
"3	c #7A7A7A",
"4	c #3D3D3D",
"5	c #828282",
"6	c #F2F2F2",
"                        ",
"                        ",
"                        ",
"                        ",
"        .+@##@+.        ",
"      $%&******&=$      ",
"     $-*;+>,,'=;*-$     ",
"     %*)!      ~)*=     ",
"    .&;!        ~;&{    ",
"    +*+  ]^//($  =*_    ",
"    :*>  ^****(  '*@    ",
"    #*<  [****)  <*}    ",
"    }*<  /****)  |*}    ",
"    :*>  ^****1  '*@    ",
"    +*=  ]2//($  %*_    ",
"    .&;~        3;&{    ",
"     =*)~      3)*+     ",
"     4-*;='<<5%;*-4     ",
"      $=&******6+4      ",
"        ._@##@_{        ",
"                        ",
"                        ",
"                        ",
"                        "};
