/* XPM */
static char * top_right_active_xpm[] = {
"12 38 4 1",
" 	c None",
".	c #3B3B3B",
"+	c #303030",
"@	c #1F1F1F",
"....        ",
"+++++.      ",
"++++++..    ",
"+++++++..   ",
"++++++++..  ",
"+++++++++.  ",
"++++++++++. ",
"+++++++++++ ",
"+++++++++++.",
"+++++++++++.",
"+++++++++++.",
"+++++++++++.",
"+++++++++++.",
"+++++++++++.",
"+++++++++++.",
"+++++++++++.",
"+++++++++++.",
"+++++++++++.",
"+++++++++++.",
"+++++++++++.",
"+++++++++++.",
"+++++++++++.",
"+++++++++++.",
"+++++++++++.",
"+++++++++++.",
"+++++++++++.",
"+++++++++++.",
"+++++++++++.",
"+++++++++++.",
"+++++++++++.",
"+++++++++++.",
"+++++++++++.",
"+++++++++++.",
"+++++++++++.",
"+++++++++++.",
"+++++++++++.",
"+++++++++++.",
"@@@@@@@@@@@."};
