/* XPM */
static char * bottom_active_xpm[] = {
"10 2 2 1",
" 	c #FFFFFF",
".	c #DCDCDC",
"          ",
".........."};
