/* XPM */
static char * close_active_xpm[] = {
"24 24 29 1",
" 	c #EBEBEB",
".	c #E8E8E8",
"+	c #E2E2E2",
"@	c #DDDDDD",
"#	c #D9D9D9",
"$	c #D8D8D8",
"%	c #E7E7E7",
"&	c #DFDFDF",
"*	c #D7D7D7",
"=	c #E3E3E3",
"-	c #303030",
";	c #777777",
">	c #D0D0D0",
",	c #7A7A7A",
"'	c #686868",
")	c #6A6A6A",
"!	c #6D6D6D",
"~	c #666666",
"{	c #CDCDCD",
"]	c #626262",
"^	c #6B6B6B",
"/	c #5D5D5D",
"(	c #CBCBCB",
"_	c #5C5C5C",
":	c #CFCFCF",
"<	c #646464",
"[	c #CECECE",
"}	c #676767",
"|	c #6E6E6E",
"       .+@#$$#@+.       ",
"     %&**********&%     ",
"    =#************#=    ",
"   +****************+   ",
"  =******************=  ",
" %#******************#% ",
" &********************& ",
".**********************.",
"+*******-;>**>,-*******+",
"@*******'-)>>!-~*******@",
"#*******{]-)^-/(*******#",
"$********{]--_(********$",
"$********:)--<[********$",
"#*******[}-~~-~[*******#",
"@*******|-~[[~-!*******@",
"+*******-![**[!-*******+",
".**********************.",
" &********************& ",
" %#******************#% ",
"  =******************=  ",
"   +****************+   ",
"    =#************#=    ",
"     %&**********&%     ",
"       .+@#$$#@+.       "};
