/* XPM */
static char * maximize_inactive_xpm[] = {
"24 24 11 1",
" 	c #FAFAFA",
".	c #F8F8F8",
"+	c #F5F5F5",
"@	c #F3F3F3",
"#	c #F1F1F1",
"$	c #F0F0F0",
"%	c #F4F4F4",
"&	c #F6F6F6",
"*	c #EFEFEF",
"=	c #959595",
"-	c #969696",
"       .+@#$$#@+.       ",
"     .%$$$$$$$$$$%.     ",
"    &#$$$$$$$$$$$$#&    ",
"   +$$$$$$$$$$$$$$$$+   ",
"  &$$$$$$$$$$$$$$$$$$&  ",
" .#$$$$$$$$$$$$$$$$$$#. ",
" %$$$$$$$$$$$$$$$$$$$$% ",
".$$$$$$$********$$$$$$$.",
"+$$$$$$*========$$$$$$$+",
"@$$$$$$*========$$$$$$$@",
"#$$$$$$*=-$$$$==$$$$$$$#",
"$$$$$$$*=-$$$$==$$$$$$$$",
"$$$$$$$*=-$$$$==$$$$$$$$",
"#$$$$$$*=-$$$$==$$$$$$$#",
"@$$$$$$*========$$$$$$$@",
"+$$$$$$*========$$$$$$$+",
".$$$$$$$$$$$$$$$$$$$$$$.",
" %$$$$$$$$$$$$$$$$$$$$% ",
" .#$$$$$$$$$$$$$$$$$$#. ",
"  &$$$$$$$$$$$$$$$$$$&  ",
"   +$$$$$$$$$$$$$$$$+   ",
"    &#$$$$$$$$$$$$#&    ",
"     .%$$$$$$$$$$%.     ",
"       .+@#$$#@+.       "};
