/* XPM */
static char * maximize_prelight_xpm[] = {
"24 24 13 1",
" 	c #EBEBEB",
".	c #E7E7E7",
"+	c #DEDEDE",
"@	c #D7D7D7",
"#	c #D2D2D2",
"$	c #CFCFCF",
"%	c #E6E6E6",
"&	c #DADADA",
"*	c #E0E0E0",
"=	c #CECECE",
"-	c #303030",
";	c #323232",
">	c #343434",
"       .+@#$$#@+.       ",
"     %&$$$$$$$$$$&%     ",
"    *#$$$$$$$$$$$$#*    ",
"   +$$$$$$$$$$$$$$$$+   ",
"  *$$$$$$$$$$$$$$$$$$*  ",
" %#$$$$$$$$$$$$$$$$$$#% ",
" &$$$$$$$$$$$$$$$$$$$$& ",
".$$$$$$$========$$$$$$$.",
"+$$$$$$=--------$$$$$$$+",
"@$$$$$$=--;;;;--$$$$$$$@",
"#$$$$$$=->$$$$--$$$$$$$#",
"$$$$$$$=->$$$$--$$$$$$$$",
"$$$$$$$=->$$$$--$$$$$$$$",
"#$$$$$$=->$$$$--$$$$$$$#",
"@$$$$$$=--------$$$$$$$@",
"+$$$$$$=--------$$$$$$$+",
".$$$$$$$$$$$$$$$$$$$$$$.",
" &$$$$$$$$$$$$$$$$$$$$& ",
" %#$$$$$$$$$$$$$$$$$$#% ",
"  *$$$$$$$$$$$$$$$$$$*  ",
"   +$$$$$$$$$$$$$$$$+   ",
"    *#$$$$$$$$$$$$#*    ",
"     %&$$$$$$$$$$&%     ",
"       .+@#$$#@+.       "};
