/* XPM */
static char * menu_pressed_xpm[] = {
"22 22 6 1",
" 	c #EBEBEB",
".	c #DFDFDF",
"+	c #C7C7C7",
"@	c #B6B6B6",
"#	c #B3B3B3",
"$	c #BEBEBE",
" .+@##############@+. ",
".$##################$.",
"+####################+",
"@####################@",
"######################",
"######################",
"######################",
"######################",
"######################",
"######################",
"######################",
"######################",
"######################",
"######################",
"######################",
"######################",
"######################",
"######################",
"@####################@",
"+####################+",
".$##################$.",
" .+@##############@+. "};
