/* XPM */
static char * shade_toggled_prelight_xpm[] = {
"24 24 12 1",
" 	c #EBEBEB",
".	c #EAEAEA",
"+	c #DFDFDF",
"@	c #D5D5D5",
"#	c #D0D0D0",
"$	c #CFCFCF",
"%	c #E5E5E5",
"&	c #D7D7D7",
"*	c #9A9A9A",
"=	c #303030",
"-	c #9B9B9B",
";	c #9F9F9F",
"  .+@#$$$$$$$$$$$$#@+.  ",
" %&$$$$$$$$$$$$$$$$$$&% ",
".&$$$$$$$$$$$$$$$$$$$$&.",
"+$$$$$$$$$$$$$$$$$$$$$$+",
"@$$$$$$$$$$$$$$$$$$$$$$@",
"#$$$$$$$$$$$$$$$$$$$$$$#",
"$$$$$$$$$$$$$$$$$$$$$$$$",
"$$$$$$$$$$$$$$$$$$$$$$$$",
"$$$$$$$$$$$$$$$$$$$$$$$$",
"$$$$$$*==========-$$$$$$",
"$$$$$$$*========-$$$$$$$",
"$$$$$$$$*======-$$$$$$$$",
"$$$$$$$$$;====-$$$$$$$$$",
"$$$$$$$$$$;==-$$$$$$$$$$",
"$$$$$$$$$$$**$$$$$$$$$$$",
"$$$$$$$$$$$$$$$$$$$$$$$$",
"$$$$$$$$$$$$$$$$$$$$$$$$",
"$$$$$$$$$$$$$$$$$$$$$$$$",
"#$$$$$$$$$$$$$$$$$$$$$$#",
"@$$$$$$$$$$$$$$$$$$$$$$@",
"+$$$$$$$$$$$$$$$$$$$$$$+",
".&$$$$$$$$$$$$$$$$$$$$&.",
" %&$$$$$$$$$$$$$$$$$$&% ",
"  .+@#$$$$$$$$$$$$#@+.  "};
