/* XPM */
static char * stick_toggled_pressed_xpm[] = {
"24 24 35 1",
" 	c #EBEBEB",
".	c #E9E9E9",
"+	c #D3D3D3",
"@	c #C1C1C1",
"#	c #B5B5B5",
"$	c #B3B3B3",
"%	c #DFDFDF",
"&	c #C4C4C4",
"*	c #A5A5A5",
"=	c #7F7F7F",
"-	c #595959",
";	c #3E3E3E",
">	c #B1B1B1",
",	c #7E7E7E",
"'	c #343434",
")	c #303030",
"!	c #696969",
"~	c #3A3A3A",
"{	c #A2A2A2",
"]	c #AFAFAF",
"^	c #A1A1A1",
"/	c #393939",
"(	c #4E4E4E",
"_	c #A4A4A4",
":	c #A6A6A6",
"<	c #808080",
"[	c #585858",
"}	c #5A5A5A",
"|	c #3F3F3F",
"1	c #404040",
"2	c #AEAEAE",
"3	c #414141",
"4	c #383838",
"5	c #4C4C4C",
"6	c #353535",
"  .+@#$$$$$$$$$$$$#@+.  ",
" %&$$$$$$$$$$$$$$$$$$&% ",
".&$$$$$$$$$$$$$$$$$$$$&.",
"+$$$$$$$$$$$$$$$$$$$$$$+",
"@$$$$$$$*=-;;-=*$$$$$$$@",
"#$$$$$>,'))))))',>$$$$$#",
"$$$$$>!)~={]]^=/)!>$$$$$",
"$$$$$,)(_$$$$$$_(),$$$$$",
"$$$$*'~_$$$$$$$$_/':$$$$",
"$$$$=)=$$$$$$$$$$,)<$$$$",
"$$$$[){$$$$$$$$$$^)}$$$$",
"$$$$|)]$$$$$$$$$$])1$$$$",
"$$$$1)]$$$$$$$$$$2)3$$$$",
"$$$$[){$$$$$$$$$$^)}$$$$",
"$$$$=)=$$$$$$$$$$,)<$$$$",
"$$$$*'/_$$$$$$$$_4':$$$$",
"$$$$$,)(_$$$$$$_5)=$$$$$",
"$$$$$>!)/,^]]^,4)!>$$$$$",
"#$$$$$>,'))))))6=>$$$$$#",
"@$$$$$$$*<}||}<:$$$$$$$@",
"+$$$$$$$$$$$$$$$$$$$$$$+",
".&$$$$$$$$$$$$$$$$$$$$&.",
" %&$$$$$$$$$$$$$$$$$$&% ",
"  .+@#$$$$$$$$$$$$#@+.  "};
