/* XPM */
static char * stick_toggled_prelight_xpm[] = {
"24 24 38 1",
" 	c #EBEBEB",
".	c #EAEAEA",
"+	c #DFDFDF",
"@	c #D5D5D5",
"#	c #D0D0D0",
"$	c #CFCFCF",
"%	c #E5E5E5",
"&	c #D7D7D7",
"*	c #BFBFBF",
"=	c #939393",
"-	c #656565",
";	c #424242",
">	c #CDCDCD",
",	c #909090",
"'	c #363636",
")	c #303030",
"!	c #919191",
"~	c #787878",
"{	c #3E3E3E",
"]	c #929292",
"^	c #BBBBBB",
"/	c #CBCBCB",
"(	c #3C3C3C",
"_	c #575757",
":	c #BEBEBE",
"<	c #C0C0C0",
"[	c #646464",
"}	c #BABABA",
"|	c #666666",
"1	c #444444",
"2	c #454545",
"3	c #CACACA",
"4	c #474747",
"5	c #949494",
"6	c #BDBDBD",
"7	c #3B3B3B",
"8	c #555555",
"9	c #373737",
"  .+@#$$$$$$$$$$$$#@+.  ",
" %&$$$$$$$$$$$$$$$$$$&% ",
".&$$$$$$$$$$$$$$$$$$$$&.",
"+$$$$$$$$$$$$$$$$$$$$$$+",
"@$$$$$$$*=-;;-=*$$$$$$$@",
"#$$$$$>,'))))))'!>$$$$$#",
"$$$$$>~){]^//^]()~>$$$$$",
"$$$$$,)_:$$$$$$:_)!$$$$$",
"$$$$*'{:$$$$$$$$:('<$$$$",
"$$$$=)]$$$$$$$$$$!)=$$$$",
"$$$$[)^$$$$$$$$$$})|$$$$",
"$$$$1)/$$$$$$$$$$/)2$$$$",
"$$$$2)/$$$$$$$$$$3)4$$$$",
"$$$$[)^$$$$$$$$$$})|$$$$",
"$$$$=)]$$$$$$$$$$,)5$$$$",
"$$$$*'(:$$$$$$$$67'<$$$$",
"$$$$$!)_:$$$$$$68)]$$$$$",
"$$$$$>~)(!}//},7)~>$$$$$",
"#$$$$$>!'))))))9]>$$$$$#",
"@$$$$$$$*=|11|5<$$$$$$$@",
"+$$$$$$$$$$$$$$$$$$$$$$+",
".&$$$$$$$$$$$$$$$$$$$$&.",
" %&$$$$$$$$$$$$$$$$$$&% ",
"  .+@#$$$$$$$$$$$$#@+.  "};
