/* XPM */
static char * maximize_pressed_xpm[] = {
"24 24 15 1",
" 	c #303030",
".	c #404040",
"+	c #555555",
"@	c #626262",
"#	c #696969",
"$	c #6D6D6D",
"%	c #424242",
"&	c #5D5D5D",
"*	c #6E6E6E",
"=	c #515151",
"-	c #6A6A6A",
";	c #707070",
">	c #717171",
",	c #F5F5F5",
"'	c #6F6F6F",
"       .+@#$$#@+.       ",
"     %&**********&%     ",
"    =-************-=    ",
"   +****************+   ",
"  =******************=  ",
" %-******************-% ",
" &********************& ",
".*******;;;;;;;;*******.",
"+******>,,,,,,,,*******+",
"@******>,,,,,,,,*******@",
"#******>,,****,,*******#",
"$******>,,****,,*******$",
"$******>,,****,,*******$",
"#******>,,****,,*******#",
"@******>,,,,,,,,*******@",
"+******>,,,,,,,,*******+",
".*******''''''''*******.",
" &********************& ",
" %-******************-% ",
"  =******************=  ",
"   +****************+   ",
"    =-************-=    ",
"     %&**********&%     ",
"       .+@#$$#@+.       "};
