/* XPM */
static char * stick_toggled_pressed_xpm[] = {
"24 24 40 1",
" 	c #303030",
".	c #353535",
"+	c #545454",
"@	c #646464",
"#	c #6D6D6D",
"$	c #6E6E6E",
"%	c #454545",
"&	c #626262",
"*	c #949494",
"=	c #D0D0D0",
"-	c #EEEEEE",
";	c #FBFBFB",
">	c #747474",
",	c #D2D2D2",
"'	c #FEFEFE",
")	c #FFFFFF",
"!	c #D1D1D1",
"~	c #E4E4E4",
"{	c #FCFCFC",
"]	c #9C9C9C",
"^	c #797979",
"/	c #9D9D9D",
"(	c #F4F4F4",
"_	c #979797",
":	c #757575",
"<	c #CDCDCD",
"[	c #F5F5F5",
"}	c #CCCCCC",
"|	c #CFCFCF",
"1	c #EFEFEF",
"2	c #CBCBCB",
"3	c #9E9E9E",
"4	c #FAFAFA",
"5	c #7A7A7A",
"6	c #F6F6F6",
"7	c #7C7C7C",
"8	c #989898",
"9	c #FDFDFD",
"0	c #737373",
"a	c #9F9F9F",
"  .+@#$$$$$$$$$$$$#@+.  ",
" %&$$$$$$$$$$$$$$$$$$&% ",
".&$$$$$$$$$$$$$$$$$$$$&.",
"+$$$$$$$$$$$$$$$$$$$$$$+",
"@$$$$$$$*=-;;-=*$$$$$$$@",
"#$$$$$>,'))))))'!>$$$$$#",
"$$$$$>~){=]^^/!{)~>$$$$$",
"$$$$$,)(_$$$$$$_()!$$$$$",
"$$$$*'{_$$$$$$$$_{'*$$$$",
"$$$$=)=$$:<[[}>$$!)|$$$$",
"$$$$1)]$$<))))2$$3)-$$$$",
"$$$$4)5$$6))))($$5)4$$$$",
"$$$$4)5$$[))))($$7)4$$$$",
"$$$$1)]$$<))))2$$3)-$$$$",
"$$$$=)!$$:<[[}>$$,)|$$$$",
"$$$$*'{_$$$$$$$$89'*$$$$",
"$$$$$!)(_$$$$$$8[)=$$$$$",
"$$$$$0~){!355a,9)~0$$$$$",
"#$$$$$>!'))))))'=0$$$$$#",
"@$$$$$$$*|-44-|*$$$$$$$@",
"+$$$$$$$$$$$$$$$$$$$$$$+",
".&$$$$$$$$$$$$$$$$$$$$&.",
" %&$$$$$$$$$$$$$$$$$$&% ",
"  .+@#$$$$$$$$$$$$#@+.  "};
