/* XPM */
static char * stick_pressed_xpm[] = {
"24 24 35 1",
" 	c #303030",
".	c #353535",
"+	c #545454",
"@	c #646464",
"#	c #6D6D6D",
"$	c #6E6E6E",
"%	c #454545",
"&	c #626262",
"*	c #949494",
"=	c #D0D0D0",
"-	c #EEEEEE",
";	c #FBFBFB",
">	c #747474",
",	c #D2D2D2",
"'	c #FEFEFE",
")	c #FFFFFF",
"!	c #D1D1D1",
"~	c #E4E4E4",
"{	c #FCFCFC",
"]	c #9C9C9C",
"^	c #797979",
"/	c #9D9D9D",
"(	c #F4F4F4",
"_	c #979797",
":	c #CFCFCF",
"<	c #EFEFEF",
"[	c #9E9E9E",
"}	c #FAFAFA",
"|	c #7A7A7A",
"1	c #7C7C7C",
"2	c #989898",
"3	c #FDFDFD",
"4	c #F5F5F5",
"5	c #737373",
"6	c #9F9F9F",
"  .+@#$$$$$$$$$$$$#@+.  ",
" %&$$$$$$$$$$$$$$$$$$&% ",
".&$$$$$$$$$$$$$$$$$$$$&.",
"+$$$$$$$$$$$$$$$$$$$$$$+",
"@$$$$$$$*=-;;-=*$$$$$$$@",
"#$$$$$>,'))))))'!>$$$$$#",
"$$$$$>~){=]^^/!{)~>$$$$$",
"$$$$$,)(_$$$$$$_()!$$$$$",
"$$$$*'{_$$$$$$$$_{'*$$$$",
"$$$$=)=$$$$$$$$$$!):$$$$",
"$$$$<)]$$$$$$$$$$[)-$$$$",
"$$$$})|$$$$$$$$$$|)}$$$$",
"$$$$})|$$$$$$$$$$1)}$$$$",
"$$$$<)]$$$$$$$$$$[)-$$$$",
"$$$$=)!$$$$$$$$$$,):$$$$",
"$$$$*'{_$$$$$$$$23'*$$$$",
"$$$$$!)(_$$$$$$24)=$$$$$",
"$$$$$5~){![||6,3)~5$$$$$",
"#$$$$$>!'))))))'=5$$$$$#",
"@$$$$$$$*:-}}-:*$$$$$$$@",
"+$$$$$$$$$$$$$$$$$$$$$$+",
".&$$$$$$$$$$$$$$$$$$$$&.",
" %&$$$$$$$$$$$$$$$$$$&% ",
"  .+@#$$$$$$$$$$$$#@+.  "};
