/* XPM */
static char * stick_toggled_inactive_xpm[] = {
"24 24 28 1",
" 	c #242424",
".	c #464646",
"+	c #717171",
"@	c #858585",
"#	c #8D8D8D",
"$	c #2B2B2B",
"%	c #727272",
"&	c #8F8F8F",
"*	c #909090",
"=	c #7E7E7E",
"-	c #8E8E8E",
";	c #4C4C4C",
">	c #2F2F2F",
",	c #4D4D4D",
"'	c #898989",
")	c #484848",
"!	c #2C2C2C",
"~	c #6F6F6F",
"{	c #8A8A8A",
"]	c #6E6E6E",
"^	c #707070",
"/	c #303030",
"(	c #323232",
"_	c #8C8C8C",
":	c #6D6D6D",
"<	c #494949",
"[	c #2A2A2A",
"}	c #4E4E4E",
"                        ",
"                        ",
"                        ",
"                        ",
"        .+@##@+.        ",
"      $%&******&+$      ",
"     $=*-+;>>,+-*=$     ",
"     %*')      )'*+     ",
"    .&-)        )-&.    ",
"    +*+  !~{']$  +*^    ",
"    @*;  ~****]  ,*@    ",
"    #*/  {****'  /*#    ",
"    #*/  {****'  (*_    ",
"    @*;  ~****:  ,*@    ",
"    +*+  !~'']$  %*^    ",
"    .&-)        <-&.    ",
"     +*')      <'*+     ",
"     [=*-+,//}%-*=[     ",
"      $+&******&+[      ",
"        .^@##@^.        ",
"                        ",
"                        ",
"                        ",
"                        "};
