/* XPM */
static char * stick_toggled_prelight_xpm[] = {
"24 24 41 1",
" 	c #303030",
".	c #323232",
"+	c #404040",
"@	c #4A4A4A",
"#	c #4E4E4E",
"$	c #4F4F4F",
"%	c #393939",
"&	c #484848",
"*	c #858585",
"=	c #CBCBCB",
"-	c #EDEDED",
";	c #FAFAFA",
">	c #595959",
",	c #CDCDCD",
"'	c #FEFEFE",
")	c #FFFFFF",
"!	c #CCCCCC",
"~	c #E1E1E1",
"{	c #FCFCFC",
"]	c #8F8F8F",
"^	c #606060",
"/	c #909090",
"(	c #F3F3F3",
"_	c #888888",
":	c #848484",
"<	c #5A5A5A",
"[	c #C8C8C8",
"}	c #F5F5F5",
"|	c #F4F4F4",
"1	c #C6C6C6",
"2	c #CACACA",
"3	c #ECECEC",
"4	c #626262",
"5	c #646464",
"6	c #F9F9F9",
"7	c #C5C5C5",
"8	c #C7C7C7",
"9	c #898989",
"0	c #FDFDFD",
"a	c #575757",
"b	c #919191",
"  .+@#$$$$$$$$$$$$#@+.  ",
" %&$$$$$$$$$$$$$$$$$$&% ",
".&$$$$$$$$$$$$$$$$$$$$&.",
"+$$$$$$$$$$$$$$$$$$$$$$+",
"@$$$$$$$*=-;;-=*$$$$$$$@",
"#$$$$$>,'))))))'!>$$$$$#",
"$$$$$>~){=]^^/!{)~>$$$$$",
"$$$$$,)(_$$$$$$_()!$$$$$",
"$$$$*'{_$$$$$$$$_{':$$$$",
"$$$$=)=$$<[}|1>$$!)2$$$$",
"$$$$-)]$$[))))1$$/)3$$$$",
"$$$$;)4$$}))))($$4);$$$$",
"$$$$;)4$$}))))($$5)6$$$$",
"$$$$-)]$$[))))7$$/)3$$$$",
"$$$$=)!$$<8||1>$$,)2$$$$",
"$$$$*'{_$$$$$$$$90':$$$$",
"$$$$$!)(_$$$$$$9|)=$$$$$",
"$$$$$a~){!/44b,0)~a$$$$$",
"#$$$$$>!'))))))0=a$$$$$#",
"@$$$$$$$*23;;32:$$$$$$$@",
"+$$$$$$$$$$$$$$$$$$$$$$+",
".&$$$$$$$$$$$$$$$$$$$$&.",
" %&$$$$$$$$$$$$$$$$$$&% ",
"  .+@#$$$$$$$$$$$$#@+.  "};
