/* XPM */
static char * top_left_inactive_xpm[] = {
"12 48 4 1",
" 	c None",
".	c #303030",
"+	c #242424",
"@	c #171717",
"        ....",
"      .+++++",
"    ..++++++",
"   ..+++++++",
"  ..++++++++",
"  .+++++++++",
" .++++++++++",
" +++++++++++",
".+++++++++++",
".+++++++++++",
".+++++++++++",
".+++++++++++",
".+++++++++++",
".+++++++++++",
".+++++++++++",
".+++++++++++",
".+++++++++++",
".+++++++++++",
".+++++++++++",
".+++++++++++",
".+++++++++++",
".+++++++++++",
".+++++++++++",
".+++++++++++",
".+++++++++++",
".+++++++++++",
".+++++++++++",
".+++++++++++",
".+++++++++++",
".+++++++++++",
".+++++++++++",
".+++++++++++",
".+++++++++++",
".+++++++++++",
".+++++++++++",
".+++++++++++",
".+++++++++++",
".+++++++++++",
".+++++++++++",
".+++++++++++",
".+++++++++++",
".+++++++++++",
".+++++++++++",
".+++++++++++",
".+++++++++++",
".+++++++++++",
".+++++++++++",
".@@@@@@@@@@@"};
