/* XPM */
static char * close_prelight_xpm[] = {
"24 24 28 1",
" 	c #EBEBEB",
".	c #E7E7E7",
"+	c #DEDEDE",
"@	c #D7D7D7",
"#	c #D2D2D2",
"$	c #CFCFCF",
"%	c #E6E6E6",
"&	c #DADADA",
"*	c #E0E0E0",
"=	c #303030",
"-	c #727272",
";	c #C7C7C7",
">	c #C8C8C8",
",	c #757575",
"'	c #656565",
")	c #676767",
"!	c #696969",
"~	c #626262",
"{	c #C5C5C5",
"]	c #5F5F5F",
"^	c #5A5A5A",
"/	c #C4C4C4",
"(	c #595959",
"_	c #C3C3C3",
":	c #606060",
"<	c #C6C6C6",
"[	c #646464",
"}	c #6A6A6A",
"       .+@#$$#@+.       ",
"     %&$$$$$$$$$$&%     ",
"    *#$$$$$$$$$$$$#*    ",
"   +$$$$$$$$$$$$$$$$+   ",
"  *$$$$$$$$$$$$$$$$$$*  ",
" %#$$$$$$$$$$$$$$$$$$#% ",
" &$$$$$$$$$$$$$$$$$$$$& ",
".$$$$$$$$$$$$$$$$$$$$$$.",
"+$$$$$$$=-;$$>,=$$$$$$$+",
"@$$$$$$$'=);>!=~$$$$$$$@",
"#$$$$$$${]=))=^/$$$$$$$#",
"$$$$$$$$${]==(_$$$$$$$$$",
"$$$$$$$$$;)==:<$$$$$$$$$",
"#$$$$$$$<[=~~=~<$$$$$$$#",
"@$$$$$$$}=~<<~=!$$$$$$$@",
"+$$$$$$$=!<$$<!=$$$$$$$+",
".$$$$$$$$$$$$$$$$$$$$$$.",
" &$$$$$$$$$$$$$$$$$$$$& ",
" %#$$$$$$$$$$$$$$$$$$#% ",
"  *$$$$$$$$$$$$$$$$$$*  ",
"   +$$$$$$$$$$$$$$$$+   ",
"    *#$$$$$$$$$$$$#*    ",
"     %&$$$$$$$$$$&%     ",
"       .+@#$$#@+.       "};
