/* XPM */
static char * hide_active_xpm[] = {
"24 24 12 1",
" 	c #EBEBEB",
".	c #E8E8E8",
"+	c #E2E2E2",
"@	c #DDDDDD",
"#	c #D9D9D9",
"$	c #D8D8D8",
"%	c #E7E7E7",
"&	c #DFDFDF",
"*	c #D7D7D7",
"=	c #E3E3E3",
"-	c #323232",
";	c #303030",
"       .+@#$$#@+.       ",
"     %&**********&%     ",
"    =#************#=    ",
"   +****************+   ",
"  =******************=  ",
" %#******************#% ",
" &********************& ",
".**********************.",
"+**********************+",
"@**********************@",
"#**********************#",
"$**********************$",
"$**********************$",
"#**********************#",
"@*******--------*******@",
"+*******;;;;;;;;*******+",
".**********************.",
" &********************& ",
" %#******************#% ",
"  =******************=  ",
"   +****************+   ",
"    =#************#=    ",
"     %&**********&%     ",
"       .+@#$$#@+.       "};
