/* XPM */
static char * maximize_pressed_xpm[] = {
"24 24 15 1",
" 	c #EBEBEB",
".	c #E3E3E3",
"+	c #D2D2D2",
"@	c #C4C4C4",
"#	c #BABABA",
"$	c #B4B4B4",
"%	c #E1E1E1",
"&	c #CACACA",
"*	c #B3B3B3",
"=	c #D6D6D6",
"-	c #B9B9B9",
";	c #B2B2B2",
">	c #303030",
",	c #313131",
"'	c #333333",
"       .+@#$$#@+.       ",
"     %&**********&%     ",
"    =-************-=    ",
"   +****************+   ",
"  =******************=  ",
" %-******************-% ",
" &********************& ",
".*******;;;;;;;;*******.",
"+******;>>>>>>>>*******+",
"@******;>>,,,,>>*******@",
"#******;>'****>>*******#",
"$******;>'****>>*******$",
"$******;>'****>>*******$",
"#******;>'****>>*******#",
"@******;>>>>>>>>*******@",
"+******;>>>>>>>>*******+",
".*******;;;;;;;;*******.",
" &********************& ",
" %-******************-% ",
"  =******************=  ",
"   +****************+   ",
"    =-************-=    ",
"     %&**********&%     ",
"       .+@#$$#@+.       "};
