/* XPM */
static char * stick_prelight_xpm[] = {
"24 24 46 1",
" 	c #EBEBEB",
".	c #EAEAEA",
"+	c #DFDFDF",
"@	c #D5D5D5",
"#	c #D0D0D0",
"$	c #CFCFCF",
"%	c #E5E5E5",
"&	c #D7D7D7",
"*	c #BFBFBF",
"=	c #939393",
"-	c #656565",
";	c #424242",
">	c #CDCDCD",
",	c #909090",
"'	c #363636",
")	c #303030",
"!	c #919191",
"~	c #787878",
"{	c #3E3E3E",
"]	c #929292",
"^	c #BBBBBB",
"/	c #CBCBCB",
"(	c #3C3C3C",
"_	c #575757",
":	c #BEBEBE",
"<	c #C0C0C0",
"[	c #CCCCCC",
"}	c #959595",
"|	c #545454",
"1	c #555555",
"2	c #979797",
"3	c #646464",
"4	c #BABABA",
"5	c #666666",
"6	c #444444",
"7	c #525252",
"8	c #454545",
"9	c #585858",
"0	c #CACACA",
"a	c #474747",
"b	c #989898",
"c	c #969696",
"d	c #949494",
"e	c #BDBDBD",
"f	c #3B3B3B",
"g	c #373737",
"  .+@#$$$$$$$$$$$$#@+.  ",
" %&$$$$$$$$$$$$$$$$$$&% ",
".&$$$$$$$$$$$$$$$$$$$$&.",
"+$$$$$$$$$$$$$$$$$$$$$$+",
"@$$$$$$$*=-;;-=*$$$$$$$@",
"#$$$$$>,'))))))'!>$$$$$#",
"$$$$$>~){]^//^]()~>$$$$$",
"$$$$$,)_:$$$$$$:_)!$$$$$",
"$$$$*'{:$$$$$$$$:('<$$$$",
"$$$$=)]$$[}|12>$$!)=$$$$",
"$$$$3)^$$}))))2$$4)5$$$$",
"$$$$6)/$$7))))_$$/)8$$$$",
"$$$$8)/$$|))))9$$0)a$$$$",
"$$$$3)^$$}))))b$$4)5$$$$",
"$$$$=)]$$[c112>$$,)d$$$$",
"$$$$*'(:$$$$$$$$ef'<$$$$",
"$$$$$!)_:$$$$$$e1)]$$$$$",
"$$$$$>~)(!4//4,f)~>$$$$$",
"#$$$$$>!'))))))g]>$$$$$#",
"@$$$$$$$*=5665d<$$$$$$$@",
"+$$$$$$$$$$$$$$$$$$$$$$+",
".&$$$$$$$$$$$$$$$$$$$$&.",
" %&$$$$$$$$$$$$$$$$$$&% ",
"  .+@#$$$$$$$$$$$$#@+.  "};
