/* XPM */
static char * stick_pressed_xpm[] = {
"24 24 42 1",
" 	c #EBEBEB",
".	c #E9E9E9",
"+	c #D3D3D3",
"@	c #C1C1C1",
"#	c #B5B5B5",
"$	c #B3B3B3",
"%	c #DFDFDF",
"&	c #C4C4C4",
"*	c #A5A5A5",
"=	c #7F7F7F",
"-	c #595959",
";	c #3E3E3E",
">	c #B1B1B1",
",	c #7E7E7E",
"'	c #343434",
")	c #303030",
"!	c #696969",
"~	c #3A3A3A",
"{	c #A2A2A2",
"]	c #AFAFAF",
"^	c #A1A1A1",
"/	c #393939",
"(	c #4E4E4E",
"_	c #A4A4A4",
":	c #A6A6A6",
"<	c #B0B0B0",
"[	c #828282",
"}	c #4B4B4B",
"|	c #4C4C4C",
"1	c #838383",
"2	c #808080",
"3	c #585858",
"4	c #5A5A5A",
"5	c #3F3F3F",
"6	c #4A4A4A",
"7	c #404040",
"8	c #4F4F4F",
"9	c #AEAEAE",
"0	c #414141",
"a	c #848484",
"b	c #383838",
"c	c #353535",
"  .+@#$$$$$$$$$$$$#@+.  ",
" %&$$$$$$$$$$$$$$$$$$&% ",
".&$$$$$$$$$$$$$$$$$$$$&.",
"+$$$$$$$$$$$$$$$$$$$$$$+",
"@$$$$$$$*=-;;-=*$$$$$$$@",
"#$$$$$>,'))))))',>$$$$$#",
"$$$$$>!)~={]]^=/)!>$$$$$",
"$$$$$,)(_$$$$$$_(),$$$$$",
"$$$$*'~_$$$$$$$$_/':$$$$",
"$$$$=)=$$<[}|1>$$,)2$$$$",
"$$$$3){$$[))))1$$^)4$$$$",
"$$$$5)]$$6))))($$])7$$$$",
"$$$$7)]$$}))))8$$9)0$$$$",
"$$$$3){$$[))))a$$^)4$$$$",
"$$$$=)=$$<[||1>$$,)2$$$$",
"$$$$*'/_$$$$$$$$_b':$$$$",
"$$$$$,)(_$$$$$$_|)=$$$$$",
"$$$$$>!)/,^]]^,b)!>$$$$$",
"#$$$$$>,'))))))c=>$$$$$#",
"@$$$$$$$*245542:$$$$$$$@",
"+$$$$$$$$$$$$$$$$$$$$$$+",
".&$$$$$$$$$$$$$$$$$$$$&.",
" %&$$$$$$$$$$$$$$$$$$&% ",
"  .+@#$$$$$$$$$$$$#@+.  "};
