/* XPM */
static char * stick_active_xpm[] = {
"24 24 40 1",
" 	c #EBEBEB",
".	c #D9D9D9",
"+	c #A6A6A6",
"@	c #717171",
"#	c #484848",
"$	c #E9E9E9",
"%	c #A4A4A4",
"&	c #383838",
"*	c #303030",
"=	c #878787",
"-	c #424242",
";	c #A5A5A5",
">	c #D4D4D4",
",	c #E7E7E7",
"'	c #404040",
")	c #606060",
"!	c #D8D8D8",
"~	c #DADADA",
"{	c #E8E8E8",
"]	c #A9A9A9",
"^	c #5C5C5C",
"/	c #5E5E5E",
"(	c #ABABAB",
"_	c #A7A7A7",
":	c #707070",
"<	c #D3D3D3",
"[	c #727272",
"}	c #494949",
"|	c #E6E6E6",
"1	c #5B5B5B",
"2	c #4B4B4B",
"3	c #616161",
"4	c #E5E5E5",
"5	c #4D4D4D",
"6	c #ACACAC",
"7	c #AAAAAA",
"8	c #D7D7D7",
"9	c #3E3E3E",
"0	c #5F5F5F",
"a	c #3A3A3A",
"                        ",
"                        ",
"                        ",
"                        ",
"        .+@##@+.        ",
"      $%&******&%$      ",
"     $=*-;>,,>;'*=$     ",
"     %*)!      !)*%     ",
"    .&-!        !'&~    ",
"    +*;  {]^/($  %*_    ",
"    :*>  ]****(  <*[    ",
"    }*|  1****)  |*2    ",
"    2*|  ^****3  4*5    ",
"    :*>  ]****6  <*[    ",
"    +*;  {7//($  %*_    ",
"    .&'!        89&~    ",
"     %*)!      80*;     ",
"     $=*'%<||<%9*=$     ",
"      $%&******a;$      ",
"        ._[}}[_~        ",
"                        ",
"                        ",
"                        ",
"                        "};
