/* XPM */
static char * stick_inactive_xpm[] = {
"24 24 31 1",
" 	c #FAFAFA",
".	c #EDEDED",
"+	c #CCCCCC",
"@	c #B0B0B0",
"#	c #A0A0A0",
"$	c #F8F8F8",
"%	c #CACACA",
"&	c #9C9C9C",
"*	c #9B9B9B",
"=	c #CBCBCB",
"-	c #BBBBBB",
";	c #9F9F9F",
">	c #EAEAEA",
",	c #F7F7F7",
"'	c #9E9E9E",
")	c #A9A9A9",
"!	c #ECECEC",
"~	c #EEEEEE",
"{	c #CECECE",
"]	c #A7A7A7",
"^	c #A8A8A8",
"/	c #CFCFCF",
"(	c #AFAFAF",
"_	c #E9E9E9",
":	c #A1A1A1",
"<	c #F6F6F6",
"[	c #A2A2A2",
"}	c #D0D0D0",
"|	c #CDCDCD",
"1	c #F9F9F9",
"2	c #9D9D9D",
"                        ",
"                        ",
"                        ",
"                        ",
"        .+@##@+.        ",
"      $%&******&=$      ",
"     $-*;=>,,>='*-$     ",
"     %*)!      !)*=     ",
"    .&;!        !'&~    ",
"    +*=  ${]^/$  =*+    ",
"    (*>  {****/  _*@    ",
"    :*,  ]****)  ,*:    ",
"    :*,  ]****)  <*[    ",
"    (*>  {****}  _*@    ",
"    +*=  ${^^/$  %*|    ",
"    .&'!        !'&~    ",
"     =*)!      !^*=     ",
"     1-*'=_,,_%'*-1     ",
"      $=&******2=1      ",
"        .+@::@|~        ",
"                        ",
"                        ",
"                        ",
"                        "};
