/* XPM */
static char * stick_toggled_active_xpm[] = {
"24 24 31 1",
" 	c #EBEBEB",
".	c #D9D9D9",
"+	c #A6A6A6",
"@	c #717171",
"#	c #484848",
"$	c #E9E9E9",
"%	c #A4A4A4",
"&	c #383838",
"*	c #303030",
"=	c #878787",
"-	c #424242",
";	c #A5A5A5",
">	c #D4D4D4",
",	c #E7E7E7",
"'	c #404040",
")	c #606060",
"!	c #D8D8D8",
"~	c #DADADA",
"{	c #A7A7A7",
"]	c #707070",
"^	c #D3D3D3",
"/	c #727272",
"(	c #494949",
"_	c #E6E6E6",
":	c #4B4B4B",
"<	c #E5E5E5",
"[	c #4D4D4D",
"}	c #D7D7D7",
"|	c #3E3E3E",
"1	c #5F5F5F",
"2	c #3A3A3A",
"                        ",
"                        ",
"                        ",
"                        ",
"        .+@##@+.        ",
"      $%&******&%$      ",
"     $=*-;>,,>;'*=$     ",
"     %*)!      !)*%     ",
"    .&-!        !'&~    ",
"    +*;          %*{    ",
"    ]*>          ^*/    ",
"    (*_          _*:    ",
"    :*_          <*[    ",
"    ]*>          ^*/    ",
"    +*;          %*{    ",
"    .&'!        }|&~    ",
"     %*)!      }1*;     ",
"     $=*'%^__^%|*=$     ",
"      $%&******2;$      ",
"        .{/((/{~        ",
"                        ",
"                        ",
"                        ",
"                        "};
