/* XPM */
static char * title_1_active_xpm[] = {
"4 38 3 1",
" 	c #DCDCDC",
".	c #EBEBEB",
"+	c #DBDBDB",
"    ",
"....",
"....",
"....",
"....",
"....",
"....",
"....",
"....",
"....",
"....",
"....",
"....",
"....",
"....",
"....",
"....",
"....",
"....",
"....",
"....",
"....",
"....",
"....",
"....",
"....",
"....",
"....",
"....",
"....",
"....",
"....",
"....",
"....",
"....",
"....",
"....",
"++++"};
