/* XPM */
static char * title_1_inactive_xpm[] = {
"4 38 3 1",
" 	c #EBEBEB",
".	c #FAFAFA",
"+	c #E9E9E9",
"    ",
"....",
"....",
"....",
"....",
"....",
"....",
"....",
"....",
"....",
"....",
"....",
"....",
"....",
"....",
"....",
"....",
"....",
"....",
"....",
"....",
"....",
"....",
"....",
"....",
"....",
"....",
"....",
"....",
"....",
"....",
"....",
"....",
"....",
"....",
"....",
"....",
"++++"};
