/* XPM */
static char * top_left_active_xpm[] = {
"12 38 15 1",
" 	c None",
".	c #D2D2D2",
"+	c #D7D7D7",
"@	c #D5D5D5",
"#	c #D4D4D4",
"$	c #D8D8D8",
"%	c #EBEBEB",
"&	c #E9E9E9",
"*	c #D3D3D3",
"=	c #ECECEC",
"-	c #D1D1D1",
";	c #D0D0D0",
">	c #CFCFCF",
",	c #CECECE",
"'	c #DBDBDB",
"        .+@#",
"      $%%%%%",
"    .@%%%%%%",
"   .#&%%%%%%",
"  .#%%%%%%%%",
"  @&%%%%%%%%",
" $%%%%%%%%%%",
" %%%%%%%%%%%",
".%%%%%%%%%%%",
"+%%%%%%%%%%%",
"@%%%%%%%%%%%",
"*%%%%%%%%%%%",
".=%%%%%%%%%%",
".%%%%%%%%%%%",
"*%%%%%%%%%%%",
"*%%%%%%%%%%%",
"#%%%%%%%%%%%",
"#%%%%%%%%%%%",
"*%%%%%%%%%%%",
".%%%%%%%%%%%",
".%%%%%%%%%%%",
"-%%%%%%%%%%%",
"-%%%%%%%%%%%",
";%%%%%%%%%%%",
";%%%%%%%%%%%",
">%%%%%%%%%%%",
">%%%%%%%%%%%",
">%%%%%%%%%%%",
">%%%%%%%%%%%",
",%%%%%%%%%%%",
",%%%%%%%%%%%",
",%%%%%%%%%%%",
",%%%%%%%%%%%",
",%%%%%%%%%%%",
",%%%%%%%%%%%",
",%%%%%%%%%%%",
",%%%%%%%%%%%",
",'''''''''''"};
