/* XPM */
static char * top_right_inactive_xpm[] = {
"12 38 7 1",
" 	c None",
".	c #E7E7E7",
"+	c #E8E8E8",
"@	c #E5E5E5",
"#	c #FAFAFA",
"$	c #E9E9E9",
"%	c #E6E6E6",
"..+@        ",
"#####$      ",
"######.@    ",
"#######%@   ",
"########%@  ",
"#########.  ",
"##########$ ",
"########### ",
"###########@",
"###########+",
"###########.",
"###########.",
"###########.",
"###########.",
"###########+",
"###########$",
"###########%",
"###########%",
"###########@",
"###########@",
"###########@",
"###########@",
"###########@",
"###########@",
"###########@",
"###########@",
"###########@",
"###########@",
"###########@",
"###########@",
"###########@",
"###########@",
"###########@",
"###########@",
"###########@",
"###########@",
"###########@",
"$$$$$$$$$$$@"};
